PathFileType	4	(X/Y/Z)	D:/Ayumi_testdata/Ayumi_25_09_2024/25-09-2024/conventional_dl_80kg01/conventional_dl_80kg01.trc	
DataRate	CameraRate	NumFrames	NumMarkers	Units	OrigDataRate	OrigDataStartFrame	OrigNumFrames	
200.00	200.00	4	55	mm	200.00	490	2620	
Frame#	Time	RSACR			LSACR			USACR			LBAR			RBAR			RHEE			RMT1			RMT5			RMT2			LHEE			LMT1			LMT5			LMT2			LMMAL			LLMAL			LTIB4			LTIB3			LTIB2			LTIB1			RMMAL			RLMAL			RTIB1			RTIB3			RTIB2			RTHI			RTHI4			RTHI3			RTHI2			LTHI1			LTHI4			LTHI3			LTHI2			FHD			LBHD			RBHD			C7			T10			CLAV			LSHO			RSHO			LRAD			LUL			LRFIN			RRAD			RUL			RUFIN			LMUPA			LDUPA			LUUPA			RMUPA			RUUPA			RDUPA			*52			*53			*54			
		X1	Y1	Z1	X2	Y2	Z2	X3	Y3	Z3	X4	Y4	Z4	X5	Y5	Z5	X6	Y6	Z6	X7	Y7	Z7	X8	Y8	Z8	X9	Y9	Z9	X10	Y10	Z10	X11	Y11	Z11	X12	Y12	Z12	X13	Y13	Z13	X14	Y14	Z14	X15	Y15	Z15	X16	Y16	Z16	X17	Y17	Z17	X18	Y18	Z18	X19	Y19	Z19	X20	Y20	Z20	X21	Y21	Z21	X22	Y22	Z22	X23	Y23	Z23	X24	Y24	Z24	X25	Y25	Z25	X26	Y26	Z26	X27	Y27	Z27	X28	Y28	Z28	X29	Y29	Z29	X30	Y30	Z30	X31	Y31	Z31	X32	Y32	Z32	X33	Y33	Z33	X34	Y34	Z34	X35	Y35	Z35	X36	Y36	Z36	X37	Y37	Z37	X38	Y38	Z38	X39	Y39	Z39	X40	Y40	Z40	X41	Y41	Z41	X42	Y42	Z42	X43	Y43	Z43	X44	Y44	Z44	X45	Y45	Z45	X46	Y46	Z46	X47	Y47	Z47	X48	Y48	Z48	X49	Y49	Z49	X50	Y50	Z50	X51	Y51	Z51	X52	Y52	Z52	X53	Y53	Z53	X54	Y54	Z54	X55	Y55	Z55	

328	1.635	321.92484	956.36554	867.37207	321.70575	897.07971	868.78711	311.92184	926.77557	883.06226	212.94440	-196.41951	252.03409	162.81387	2023.95435	244.33624	277.38126	1342.14807	30.32943	114.96358	1453.69019	43.72543	183.26431	1499.86792	31.07523	144.91505	1481.68091	41.53101	309.70929	496.39224	40.26646	141.99335	399.79517	49.43819	206.19522	350.64200	32.83101	167.28880	369.70648	46.74225	249.68384	512.11835	65.15293	290.34338	443.67249	74.33482	308.36423	508.38690	205.31183	291.69608	517.87634	267.82141	330.95715	547.27869	253.47736	323.48325	557.95868	296.33707	226.89896	1337.37964	59.67705	269.72202	1397.02124	72.33144	266.57108	1312.06677	310.59424	278.76663	1330.09558	248.20982	307.53088	1289.40320	290.57227	274.23804	1113.16113	734.00317	271.32434	1174.66211	589.95844	222.65735	1185.13782	602.61737	256.94296	1159.01331	652.64886	282.75864	729.17792	728.88116	228.23288	658.53778	604.03186	277.61600	673.25922	603.58539	247.98610	682.46820	661.80670	132.07877	819.79230	1504.44653	243.82458	833.14258	1492.61597	252.48535	957.61987	1484.68066	270.84030	906.95264	1300.30286	299.99924	922.70471	919.90405	145.90182	916.56488	1241.01868	255.49760	772.06537	1289.35278	236.93263	1031.71533	1311.14722	238.96338	268.25244	1246.37854	198.44725	268.68231	1251.13965	180.99625	180.14207	1243.05249	214.81996	1543.78662	1326.56006	261.49237	1547.63220	1319.72266	200.69940	1630.63403	1334.87927	258.28488	554.07745	1253.67139	221.62408	582.04065	1273.42603	255.25412	633.02728	1264.29114	258.11792	1251.77295	1303.58582	250.86423	1189.84839	1303.13281	207.83113	1256.42126	1308.32190									 
329	1.640	322.31531	956.12665	867.47003	322.00775	896.85303	868.91626	312.26477	926.57635	883.19025	212.94878	-196.42673	252.03590	162.81201	2023.95642	244.33902	277.36169	1342.14185	30.32936	114.98581	1453.69849	43.72565	183.23512	1499.89014	31.07086	144.92546	1481.67627	41.52505	309.70541	496.38202	40.27195	141.98248	399.80206	49.43401	206.17651	350.65283	32.82533	167.28516	369.70642	46.74022	249.68802	512.10101	65.15018	290.32666	443.63522	74.34381	308.28525	508.24332	205.37617	291.53262	517.74530	267.85345	330.86401	547.09534	253.57010	323.33484	557.76904	296.41647	226.88371	1337.38696	59.69410	269.68384	1397.06006	72.34889	266.65695	1312.23584	310.64386	278.70212	1330.14905	248.28183	307.39795	1289.34814	290.62631	275.06989	1112.92651	734.00287	272.03757	1174.55603	589.99792	223.49759	1185.15930	602.81189	257.79855	1158.84155	652.70892	282.87943	728.90131	729.01465	228.22452	658.42310	604.12469	277.65482	673.02991	603.67883	248.01904	682.34570	661.88861	131.27766	819.81293	1504.34229	243.03625	833.12994	1492.73242	251.71774	957.62012	1484.80151	270.41684	906.89941	1300.43286	300.28592	922.57147	920.08246	145.57347	916.59070	1240.94495	255.04945	771.96191	1289.34680	236.54085	1031.79443	1311.12561	238.83548	268.24274	1244.70984	198.31636	268.63226	1249.33398	181.00049	179.88452	1240.93408	214.67340	1544.00928	1324.90234	261.32803	1547.79382	1318.17969	200.53818	1630.87122	1332.91016	258.00824	554.06940	1252.94592	221.29175	581.93073	1272.71655	254.92650	632.95837	1263.80566	257.86954	1251.89685	1302.98865	250.70242	1189.91736	1302.78979	207.58572	1256.61011	1307.66406									 
330	1.645	322.75644	955.90509	867.57605	322.33698	896.62500	869.05798	312.63470	926.39722	883.29578	212.94592	-196.42857	252.03065	162.80807	2023.94873	244.33881	277.32236	1342.16272	30.32738	114.99392	1453.71155	43.72598	183.22249	1499.88843	31.06904	144.93430	1481.68213	41.51090	309.70840	496.36578	40.27598	141.98283	399.80136	49.43097	206.18576	350.64783	32.82689	167.27243	369.70840	46.74285	249.68393	512.08020	65.16944	290.28622	443.66150	74.33212	308.14981	508.10248	205.42393	291.35828	517.57861	267.87851	330.71738	546.92462	253.65836	323.43076	557.52271	296.57455	226.87154	1337.38599	59.70119	269.68665	1397.04871	72.36041	266.57629	1312.29395	310.68021	278.64227	1330.14819	248.27753	307.25406	1289.34351	290.65540	275.88577	1112.73877	733.99628	272.62982	1174.13477	589.61426	224.30490	1185.27173	602.97064	258.68527	1158.71179	652.68066	282.98724	728.66217	729.14740	228.21611	658.32123	604.22418	277.66843	672.82642	603.76331	248.07918	682.21838	661.98004	130.45236	819.87256	1504.22668	242.22751	833.13165	1492.84753	250.97440	957.61023	1484.92078	269.94769	906.87451	1300.55945	300.56717	922.46387	920.23853	145.24138	916.62451	1240.85986	254.56300	771.85156	1289.33496	236.16051	1031.86951	1311.13733	238.72269	268.24219	1242.96912	198.18152	268.57437	1247.51941	180.92480	179.87018	1238.78528	214.48782	1544.21375	1323.24365	261.15335	1548.00391	1316.70471	200.41071	1631.11243	1330.92432	257.71930	554.02765	1252.20117	220.98326	581.80280	1272.01038	254.55397	632.92749	1263.29907	257.63983	1252.02075	1302.37854	250.42043	1190.04626	1302.34119	207.34483	1256.78735	1306.86938									 
331	1.650	323.16315	955.75098	867.66870	322.57761	896.58405	869.19751	313.03943	926.22180	883.38177	212.94687	-196.43655	252.03398	162.80948	2023.95203	244.34085	277.56357	1342.21375	30.40380	114.98621	1453.70923	43.73254	183.22284	1499.89368	31.06451	144.92747	1481.68384	41.52287	309.70868	496.35223	40.29148	141.97757	399.80890	49.43682	206.18924	350.65298	32.83302	167.26666	369.71130	46.73804	249.67134	512.09235	65.18709	290.28601	443.59241	74.33208	308.05759	507.96756	205.48965	291.41779	517.30804	268.16193	330.45981	546.87738	253.78827	323.29141	557.33069	296.65570	226.85573	1337.39185	59.71599	269.68484	1397.07312	72.38009	266.32944	1312.27551	310.73090	278.53918	1330.17078	248.33916	307.15964	1289.28113	290.68854	276.70456	1112.56506	733.95496	273.26318	1173.91565	589.53729	225.14473	1185.32837	603.13055	259.54755	1158.57324	652.66718	283.13773	728.42670	729.24762	228.21477	658.22174	604.33478	277.69580	672.59082	603.85260	248.14032	682.10516	662.07269	129.59834	819.87848	1504.11450	241.40466	833.14197	1492.94128	250.15770	957.64423	1485.03687	269.50522	906.85980	1300.69690	300.89838	922.35626	920.40198	144.90184	916.64990	1240.75134	254.06447	771.75629	1289.33179	235.76839	1031.95984	1311.13770	238.57973	268.24286	1241.19580	198.02907	268.54251	1245.68835	180.82735	179.86134	1236.58545	214.32770	1544.42737	1321.56238	261.02783	1548.16345	1315.12646	200.27802	1631.34229	1328.90247	257.45163	554.00330	1251.45459	220.62247	581.69464	1271.28333	254.22067	632.88062	1262.82568	257.38940	1252.14417	1301.75146	250.18285	1190.16980	1301.83228	207.07726	1256.99927	1306.18774									 
